<svg width="36" height="27" viewBox="0 0 36 27" fill="none" xmlns="http://www.w3.org/2000/svg">
<path d="M7.5 22.5V13.5H3L18 3.375L25.5 8.35313V5.0625H28.5V10.4344L33 13.5H28.5V22.5H19.875V15.75H16.125V22.5H7.5ZM9.75 20.8125H13.875V14.0625H22.125V20.8125H26.25V11.2219L18 5.59687L9.75 11.2219V20.8125ZM14.8125 10.9688H21.1875C21.1875 10.35 20.8687 9.83906 20.2313 9.43594C19.5938 9.03281 18.85 8.83125 18 8.83125C17.15 8.83125 16.4062 9.03281 15.7687 9.43594C15.1312 9.83906 14.8125 10.35 14.8125 10.9688Z" fill="black"/>
</svg>
