<svg width="30" height="30" viewBox="0 0 30 30" fill="none" xmlns="http://www.w3.org/2000/svg">
<g clip-path="url(#clip0_3_93)">
<g filter="url(#filter0_d_3_93)">
<path d="M15 1.20001C7.38 1.20001 1.2 7.38001 1.2 15C1.2 22.62 7.38 28.8 15 28.8C22.62 28.8 28.8 22.62 28.8 15C28.8 7.38001 22.62 1.20001 15 1.20001ZM11.4 21C11.4 21.3 11.1 21.6 10.8 21.6H8.4C8.1 21.6 7.8 21.3 7.8 21V12C7.8 11.7 8.1 11.4 8.4 11.4H10.8C11.1 11.4 11.4 11.7 11.4 12V21ZM9.6 10.8C8.64 10.8 7.8 9.96001 7.8 9.00001C7.8 8.04001 8.64 7.20001 9.6 7.20001C10.56 7.20001 11.4 8.04001 11.4 9.00001C11.4 9.96001 10.56 10.8 9.6 10.8ZM22.8 21C22.8 21.3 22.5 21.6 22.2 21.6H19.8C19.5 21.6 19.2 21.3 19.2 21V16.5C19.2 15.66 18.54 15 17.7 15C16.86 15 16.2 15.66 16.2 16.5V21C16.2 21.3 15.9 21.6 15.6 21.6H13.2C12.9 21.6 12.6 21.3 12.6 21V12C12.6 11.7 12.9 11.4 13.2 11.4H15.6C15.9 11.4 16.2 11.64 16.2 12C16.86 11.64 17.52 11.4 18.3 11.4C20.76 11.4 22.8 13.44 22.8 15.9V21Z" fill="#AEFE02"/>
</g>
</g>
<defs>
<filter id="filter0_d_3_93" x="-8.8" y="-8.79999" width="47.6" height="47.6" filterUnits="userSpaceOnUse" color-interpolation-filters="sRGB">
<feFlood flood-opacity="0" result="BackgroundImageFix"/>
<feColorMatrix in="SourceAlpha" type="matrix" values="0 0 0 0 0 0 0 0 0 0 0 0 0 0 0 0 0 0 127 0" result="hardAlpha"/>
<feOffset/>
<feGaussianBlur stdDeviation="5"/>
<feComposite in2="hardAlpha" operator="out"/>
<feColorMatrix type="matrix" values="0 0 0 0 0 0 0 0 0 0 0 0 0 0 0 0 0 0 0.25 0"/>
<feBlend mode="normal" in2="BackgroundImageFix" result="effect1_dropShadow_3_93"/>
<feBlend mode="normal" in="SourceGraphic" in2="effect1_dropShadow_3_93" result="shape"/>
</filter>
<clipPath id="clip0_3_93">
<rect width="30" height="30" fill="white"/>
</clipPath>
</defs>
</svg>
