<svg width="30" height="30" viewBox="0 0 30 30" fill="none" xmlns="http://www.w3.org/2000/svg">
<g clip-path="url(#clip0_3_95)">
<g filter="url(#filter0_d_3_95)">
<path d="M15 1.20001C7.3908 1.20001 1.2 7.39081 1.2 15C1.2 17.376 1.81373 19.7119 2.97773 21.7735L1.22227 28.0383C1.16467 28.2441 1.21995 28.4642 1.36875 28.6172C1.48335 28.7354 1.6398 28.8 1.8 28.8C1.848 28.8 1.89674 28.7938 1.94414 28.7824L8.48203 27.1629C10.4782 28.2345 12.726 28.8 15 28.8C22.6092 28.8 28.8 22.6092 28.8 15C28.8 7.39081 22.6092 1.20001 15 1.20001ZM9.98555 8.40001C10.2219 8.40001 10.4571 8.4033 10.6641 8.4129C10.8819 8.4237 11.1747 8.3301 11.4621 9.0129C11.7573 9.7137 12.4655 11.4352 12.5531 11.611C12.6419 11.7862 12.7012 11.9904 12.5836 12.2238C12.466 12.4572 12.4073 12.604 12.2297 12.8086C12.0521 13.0132 11.8573 13.2643 11.6977 13.4215C11.5201 13.5961 11.3354 13.7848 11.5418 14.1352C11.7482 14.4856 12.4593 15.631 13.5129 16.5586C14.8659 17.7502 16.0077 18.1201 16.3617 18.2953C16.7157 18.4705 16.9229 18.4408 17.1293 18.2074C17.3357 17.9734 18.015 17.1861 18.2508 16.8363C18.4866 16.4865 18.7225 16.5436 19.0477 16.6606C19.3729 16.777 21.1147 17.6233 21.4687 17.7985C21.8227 17.9737 22.0596 18.0616 22.1484 18.2074C22.2372 18.3526 22.2374 19.0526 21.9422 19.8692C21.647 20.6864 20.2308 21.433 19.5504 21.5332C18.9396 21.6226 18.1664 21.6602 17.318 21.3938C16.8038 21.2318 16.1442 21.0173 15.2988 20.6567C11.745 19.1411 9.42369 15.6072 9.24609 15.3738C9.06909 15.1404 7.8 13.4777 7.8 11.7563C7.8 10.0349 8.71464 9.18869 9.03984 8.83829C9.36504 8.48789 9.74915 8.40001 9.98555 8.40001Z" fill="#AEFF00"/>
</g>
</g>
<defs>
<filter id="filter0_d_3_95" x="-8.80011" y="-8.79999" width="47.6001" height="47.6" filterUnits="userSpaceOnUse" color-interpolation-filters="sRGB">
<feFlood flood-opacity="0" result="BackgroundImageFix"/>
<feColorMatrix in="SourceAlpha" type="matrix" values="0 0 0 0 0 0 0 0 0 0 0 0 0 0 0 0 0 0 127 0" result="hardAlpha"/>
<feOffset/>
<feGaussianBlur stdDeviation="5"/>
<feComposite in2="hardAlpha" operator="out"/>
<feColorMatrix type="matrix" values="0 0 0 0 0 0 0 0 0 0 0 0 0 0 0 0 0 0 0.25 0"/>
<feBlend mode="normal" in2="BackgroundImageFix" result="effect1_dropShadow_3_95"/>
<feBlend mode="normal" in="SourceGraphic" in2="effect1_dropShadow_3_95" result="shape"/>
</filter>
<clipPath id="clip0_3_95">
<rect width="30" height="30" fill="white"/>
</clipPath>
</defs>
</svg>
